#!OML:ASF F:\VICON\USERDATA\INSTALL\rory3\rory3.ASF
:FULLY-SPECIFIED
:DEGREES
64
root 0.5188974239937755 17.784909141298733 4.102651226832529 4.707887746872806 -6.148665741505569 -4.28299463432634
lfemur -17.688464230918242 5.887416037086648 -14.458174084429144
ltibia 81.3908372931965
lfoot 3.9767605761521767 -9.145229617571767
ltoes -14.495980530875041
rfemur -25.143717202075663 3.880409574211378 31.30765108990569
rtibia 44.10042231226991
rfoot 2.90062457262781 -8.173881265967326
rtoes 8.999888569939685
lowerback 14.98131134930154 1.3757406308417912 3.344054550539269
upperback -0.5700493641966002 2.564286739433582 2.7583731277911507
thorax -10.111707291605502 1.2320608601768046 0.21219174748465783
lowerneck -19.336376140467483 -4.226782175556426 -2.5073337512045657
upperneck 7.928114077395134 -5.760974846869886 5.322916460800675
head 6.410553494443877 -2.3118649995285248 1.3746269933450233
lclavicle -1.3367475555375223e-15 -2.7589793148670164e-15
lhumerus -37.91114000395681 -6.569924806961888 86.6549998376424
lradius 123.55611735355868
lwrist 33.03067310055346
lhand -23.09543958277417 3.796067359591627
lfingers 7.12502
lthumb 3.01422663736148 33.35548591427207
rclavicle -1.3367475555043392e-15 -2.758979314844713e-15
rhumerus -58.391714746518176 8.683252539107748 -97.69871164805932
rradius 117.54581327435926
rwrist -23.3105480116865
rhand -18.007493800932764 41.740796714708964
rfingers 7.12502
rthumb 7.888129465997423 11.261964663209604
65
root 0.5434273624193738 17.84001744224711 4.756397207585692 4.739315796917033 -5.901831419897348 -4.30764569123195
lfemur -19.40314485776583 5.838348211756735 -14.380543332337737
ltibia 84.08170897125872
lfoot 5.460965136914321 -9.07523848185775
ltoes -15.58391440055369
rfemur -23.69685415963985 3.69819106539169 31.498272638500467
rtibia 42.95879522904649
rfoot 3.914082463342078 -7.6061705187024495
rtoes 7.715956102179984
lowerback 14.791231270023905 1.4186210586945123 3.527297572679098
upperback -0.6346429165299257 2.6472441068250507 2.6571211416038385
thorax -9.944868705242529 1.2773414181583838 -0.012691262189336527
lowerneck -19.321214122579097 -4.289758318703024 -2.4853749869334067
upperneck 8.213013199613117 -5.868408110886961 5.274982222399293
head 6.5593927949082165 -2.370669060743281 1.3476273506659189
lclavicle -1.3367475555384093e-15 -2.7589793148682108e-15
lhumerus -38.23417975643019 -6.731875358896995 86.64880501892706
lradius 123.68834612323803
lwrist 32.61072223720283
lhand -22.879865099578637 3.656944485637443
lfingers 7.12502
lthumb 3.3140540591077623 33.32188868325327
rclavicle -1.3367475555076593e-15 -2.7589793148478242e-15
rhumerus -58.64518645233967 8.450018155926537 -97.39532725161051
rradius 117.75415662667356
rwrist -23.369590866632226
rhand -18.07989609879408 42.22156398845173
rfingers 7.12502
rthumb 7.756652480231277 11.752967103549832
66
root 0.5572380166386041 17.89441732744218 5.135012025142078 4.778750814152723 -5.65344700648819 -4.355749949847481
lfemur -21.116618463603075 5.735236737936372 -14.305553785964076
ltibia 86.46884781660722
lfoot 7.6117435490650305 -8.769458982325975
ltoes -16.71945279041183
rfemur -22.16683046740654 3.560033420292051 31.67075866712042
rtibia 41.85675015967624
rfoot 4.737371199677277 -7.09991256856402
rtoes 7.240325750935426
lowerback 14.63017402965931 1.4725484682835814 3.6886752214234364
upperback -0.7078914834609104 2.73813531668402 2.5618103850642258
thorax -9.882501176252788 1.3076056018837556 -0.22709851992105734
lowerneck -19.23616615108638 -4.35596285242666 -2.44863361030055
upperneck 8.429984567679286 -5.986646752652645 5.222212380009792
head 6.656426942855138 -2.4415131400597168 1.3212825476955472
lclavicle -1.3367475555376717e-15 -2.7589793148680917e-15
lhumerus -38.600680914768695 -6.8794715116158125 86.7030592607593
lradius 123.71358455601508
lwrist 32.28552077136701
lhand -22.47617858170809 3.693022628128271
lfingers 7.12502
lthumb 3.633640017366025 33.38222085089884
rclavicle -1.3367475555073824e-15 -2.7589793148481047e-15
rhumerus -58.86743350632699 8.201775245287187 -97.09823649008847
rradius 117.94141491798203
rwrist -23.421355635186377
rhand -18.190399127960266 42.58965925182612
rfingers 7.12502
rthumb 7.6240455944458505 12.249833457218399
67
root 0.5752148177446467 17.942932831200586 5.776826554447728 4.798285445462568 -5.42397523743352 -4.376378711030104
lfemur -22.734705173021922 5.5965709020824335 -14.311281297890531
ltibia 88.47632026725906
lfoot 9.322440895691084 -9.174140053198256
ltoes -19.186187801506996
rfemur -20.614635545821656 3.4089537813191972 31.807933350490778
rtibia 40.864268155414074
rfoot 5.7563543959606465 -6.526418887678123
rtoes 6.623724874042175
lowerback 14.447288179371514 1.5342222821357399 3.84427918395028
upperback -0.7858645711059179 2.8373977027321655 2.4408422675569073
thorax -9.77382341779121 1.352182295704404 -0.46547816846582785
lowerneck -19.122139820770343 -4.446427958257025 -2.4107661612084335
upperneck 8.600735963221878 -6.124672218350527 5.170103209715889
head 6.714951755456357 -2.5202939868973524 1.2983748816804657
lclavicle -1.3367475555404117e-15 -2.7589793148706764e-15
lhumerus -39.098381739005255 -7.035159693315689 86.73268141905257
lradius 123.59257747669909
lwrist 31.995785198698453
lhand -22.34369584960837 3.5888816625855773
lfingers 7.12502
lthumb 3.90711207063464 33.40778298313268
rclavicle -1.3367475555085145e-15 -2.758979314849452e-15
rhumerus -59.055164630547736 7.934759771423187 -96.81067035333948
rradius 118.0856561964276
rwrist -23.49173805377479
rhand -18.34527363078919 42.86456071974183
rfingers 7.12502
rthumb 7.4921852881245705 12.72735169871743
68
root 0.5939408519523846 17.974392784205197 6.388784336779638 4.776902626577293 -5.215886195497583 -4.360924503177887
lfemur -24.24289949786896 5.450297966084953 -14.378872050038616
ltibia 90.05420455774048
lfoot 10.75710345189059 -9.268851057162811
ltoes -22.726786029716017
rfemur -19.057798153599038 3.2838333845011607 31.877303915041132
rtibia 40.05150920912285
rfoot 6.480339783359069 -6.02396639384723
rtoes 5.045643650027817
lowerback 14.266302501304999 1.6023713326117783 3.9562526350823366
upperback -0.873232623487227 2.935706551144375 2.2975663096466254
thorax -9.64801497935843 1.3931078824806855 -0.7248706725359333
lowerneck -18.966686479153555 -4.552736991402796 -2.384330109113578
upperneck 8.710536759597149 -6.289100928094072 5.135813824333057
head 6.737690477991857 -2.610051437179264 1.283099766141863
lclavicle -1.3367475555398823e-15 -2.758979314870666e-15
lhumerus -39.49729289538966 -7.307061579054616 86.83612842742993
lradius 123.25132604879109
lwrist 31.758501822739774
lhand -22.242255016145847 3.418555640141797
lfingers 7.12502
lthumb 3.9094830830077907 33.24454981496409
rclavicle -1.3367475555088907e-15 -2.7589793148501668e-15
rhumerus -59.234505232133735 7.6423455004614445 -96.54276825324793
rradius 118.19833740323337
rwrist -23.518632698902906
rhand -18.497289487060367 43.17514983228489
rfingers 7.12502
rthumb 7.345073927075372 13.189073208437303
69
root 0.5995070928814468 18.00929219160164 6.6714688557149735 4.767946085442455 -5.013591644627609 -4.375047278892732
lfemur -25.711674910298186 5.278168133101055 -14.442696482759802
ltibia 91.17964819431523
lfoot 11.67175273083819 -9.906530472736112
ltoes -26.725507682592877
rfemur -17.486507287664715 3.2718232153902442 31.97554182945879
rtibia 39.347290593851
rfoot 7.34685586660846 -5.563081283138642
rtoes 2.9918524681785224
lowerback 14.148731092536545 1.676790730291681 4.044603795495048
upperback -0.960502692477775 3.0458834721895816 2.1764240759827738
thorax -9.606298332160183 1.4311017115181819 -0.950878707567159
lowerneck -18.739756593769847 -4.662319210006859 -2.3805253113921383
upperneck 8.76736728375075 -6.451353055956667 5.123312944028014
head 6.728610490270728 -2.6959782597405635 1.276335807616671
lclavicle -1.3367475555396541e-15 -2.7589793148709154e-15
lhumerus -39.78629955274222 -7.589028826662137 86.98335552727603
lradius 122.74336516037812
lwrist 31.55382613219655
lhand -22.12569195697123 3.3857699301063455
lfingers 7.12502
lthumb 3.8453697858053317 33.0495709483331
rclavicle -1.3367475555089193e-15 -2.7589793148506432e-15
rhumerus -59.387506390095645 7.3412388581024945 -96.29624000641367
rradius 118.27123970624329
rwrist -23.544595363167847
rhand -18.617640565205505 43.46433504713571
rfingers 7.12502
rthumb 7.2091839816774375 13.57503455947647
70
root 0.6085980045692614 18.03781526664344 7.063945957089444 4.732848393940677 -4.852618885868448 -4.384204027508457
lfemur -27.06008604472787 5.108278988820924 -14.529508577136255
ltibia 91.84562370446298
lfoot 11.440852049223292 -10.70027527715617
ltoes -30.436490728845186
rfemur -15.869124235763312 3.290791083257608 32.093672917553654
rtibia 38.794288824703145
rfoot 8.216560118960725 -5.175521152146495
rtoes 0.7206927973807842
lowerback 14.025914951307307 1.7551134413776168 4.13986582739704
upperback -1.0383361378783433 3.1608916789579773 2.042863428649771
thorax -9.500824716972042 1.4745419807531759 -1.203858719679486
lowerneck -18.470363913969027 -4.769534769382532 -2.3897750775146194
upperneck 8.792719607516744 -6.6053817478210615 5.121890625935509
head 6.689589512211614 -2.777907559769271 1.2764646811264764
lclavicle -1.3367475555389463e-15 -2.7589793148708298e-15
lhumerus -40.052715352214335 -7.816084322538676 87.16760091350942
lradius 122.12192972900759
lwrist 31.411857729250087
lhand -22.071181676640464 3.356538474863718
lfingers 7.12502
lthumb 3.8234863822603833 32.891796462180345
rclavicle -1.3367475555090558e-15 -2.7589793148512392e-15
rhumerus -59.49613687453196 7.045418640941636 -96.0566908271372
rradius 118.2971921369966
rwrist -23.46865263497472
rhand -18.70807397972778 43.56803334824881
rfingers 7.12502
rthumb 7.102695024894842 13.731482554315344
